<svg xmlns="http://www.w3.org/2000/svg" width="17" height="17" viewBox="0 0 17 17"><g><g><path fill="#222" d="M1.133 4.104h2.929a7.12 7.12 0 0 0-.095 1.172c0 1.18 1.133 1.163 1.133 0 0-.376.05-.776.15-1.172h6.498c.101.396.152.796.152 1.172 0 1.144 1.133 1.144 1.133 0 0-.382-.043-.778-.128-1.172h2.962L17 17H0zm2.267 0v1.758c0 .971.351 1.759 1.133 1.759.783 0 1.134-.788 1.134-1.759V4.104m5.666 0v1.758c0 .971.351 1.759 1.134 1.759.782 0 1.133-.788 1.133-1.759V4.104M8.5 1.172c1.783 0 2.87 1.446 3.248 2.932h1.157C12.462 2.04 10.889 0 8.5 0 6.04 0 4.454 1.756 4.062 4.104h1.187C5.623 2.616 6.7 1.172 8.5 1.172z"/></g></g></svg>