<svg xmlns="http://www.w3.org/2000/svg" width="16" height="15" viewBox="0 0 16 15"><g><g><path fill="#606060" d="M13.79 3.606a.919.919 0 0 1-.924.913h-.877a.919.919 0 0 1-.924-.913V2.74c0-.504.413-.913.924-.913h.877c.51 0 .924.409.924.913v.867zm-.985 9.33H3.568c-.51 0-1.02-.41-1.02-.913V7.458c0-.504.51-.919 1.02-.919h.523c.036 0 .07.004.102.01.195.036.32.175.333.354.003.03.001.06-.003.092-.003.022.048.044.046.065-.016.13.023.263.023.397a3.628 3.628 0 0 0 3.556 3.65l.045.002c2.04 0 3.691-1.635 3.692-3.651 0-.134-.014-.267-.029-.398-.002-.021-.002-.044-.005-.065a.445.445 0 0 1-.003-.092c.013-.179.138-.318.332-.354a.563.563 0 0 1 .103-.01h.522c.51 0 .985.415.985.92v4.564c0 .504-.475.913-.985.913zM6.34 7.458s.147-1.825 1.848-1.825c1.7 0 1.847 1.825 1.847 1.825s.054 1.826-1.847 1.826-1.848-1.826-1.848-1.826zM2.692.142C1.672.142.844.96.844 1.968v10.826c0 1.008.828 1.826 1.848 1.826h10.954c1.02 0 1.847-.818 1.847-1.826V1.968A1.837 1.837 0 0 0 13.646.142z"/></g></g></svg>