<svg xmlns="http://www.w3.org/2000/svg" width="15" height="13" viewBox="0 0 15 13"><g><g><path fill="#606060" d="M14.675.892a5.96 5.96 0 0 1-1.91.747 2.962 2.962 0 0 0-2.193-.972c-1.66 0-3.005 1.378-3.005 3.078 0 .24.027.476.078.7C5.148 4.319 2.933 3.093 1.45 1.23a3.114 3.114 0 0 0-.406 1.547c0 1.068.531 2.01 1.336 2.561a2.947 2.947 0 0 1-1.36-.386v.038c0 1.492 1.035 2.735 2.41 3.02a2.97 2.97 0 0 1-1.358.051c.383 1.223 1.492 2.113 2.807 2.139a5.941 5.941 0 0 1-4.45 1.274 8.363 8.363 0 0 0 4.607 1.383c5.528 0 8.55-4.69 8.55-8.758l-.01-.399c.59-.432 1.1-.974 1.502-1.591-.54.245-1.118.41-1.726.485A3.082 3.082 0 0 0 14.675.892z"/></g></g></svg>