<svg xmlns="http://www.w3.org/2000/svg" width="11" height="17" viewBox="0 0 11 17"><g><g><path fill="#222" d="M5.525 8.65c2.243 0 4.06-1.937 4.06-4.327 0-2.386-1.817-4.324-4.06-4.324-2.242 0-4.058 1.938-4.058 4.325 0 2.39 1.816 4.326 4.058 4.326zM2.472 3.917h6.106c.015.137.037.269.037.407 0 1.82-1.384 3.294-3.09 3.294s-3.09-1.475-3.09-3.294c.001-.138.023-.27.037-.407zm4.864 4.67c-.228.854-.96 1.485-1.838 1.485-.875 0-1.606-.631-1.835-1.484A5.602 5.602 0 0 0 0 13.876V17h11.002v-3.125a5.604 5.604 0 0 0-3.665-5.288z"/></g></g></svg>